Coordinates
version=1
nRows=12
nColumns=23
inDegrees=yes

Units are S.I. units (second, meters, Newtons, ...)
If the header above contains a line with 'inDegrees', this indicates whether rotational values are in degrees (yes) or radians (no).

endheader
time	pelvis_tilt	pelvis_list	pelvis_rotation	pelvis_tx	pelvis_ty	pelvis_tz	hip_flexion_r	hip_adduction_r	hip_rotation_r	knee_angle_r	knee_angle_r_beta	ankle_angle_r	subtalar_angle_r	mtp_angle_r	hip_flexion_l	hip_adduction_l	hip_rotation_l	knee_angle_l	knee_angle_l_beta	ankle_angle_l	subtalar_angle_l	mtp_angle_l
      0.00000000	      0.80692286	     -8.48314026	     -2.63793257	      2.21592095	      0.93692543	      1.02745938	      7.11959915	     10.85496949	     -6.61084731	     40.16652378	      0.70103809	     24.45844556	     -5.58644940	      0.00000000	     24.44011666	    -12.60865184	      0.16321050	     81.07416424	      1.41501110	      0.57205459	    -22.34930389	      0.00000000
      0.00666667	      0.80249649	     -8.11053984	     -2.45866464	      2.21612538	      0.94125016	      1.02658696	      5.31109930	     10.34326585	     -6.63329795	     38.74326136	      0.67619747	     23.38415041	     -5.15317899	      0.00000000	     25.27980186	    -12.17594712	     -0.03041813	     79.11604398	      1.38083546	      1.10629965	    -21.94014025	      0.00000000
      0.01333333	      0.57986681	     -7.57631290	     -2.36046992	      2.21630969	      0.94516297	      1.02582852	      3.80874085	      9.67531400	     -6.61655907	     37.42133082	      0.65312543	     22.21952826	     -4.81989284	      0.00000000	     26.22013717	    -11.55269904	     -0.32218766	     77.03266620	      1.34447366	      1.66138986	    -21.46328718	      0.00000000
      0.02000000	      0.33442948	     -7.00550211	     -2.29426639	      2.21650683	      0.94909057	      1.02510116	      2.34664589	      8.97896776	     -6.58237592	     36.04985763	      0.62918871	     20.84027680	     -4.40838107	      0.00000000	     27.03430079	    -10.88831097	     -0.68188616	     74.76951144	      1.30497415	      2.19457423	    -20.94877458	      0.00000000
      0.02666667	      0.45737025	     -6.50130602	     -2.09652614	      2.21705156	      0.95351934	      1.02422421	      0.39380794	      8.35528915	     -6.65861676	     34.46449685	      0.60151895	     19.46343859	     -4.17130772	      0.00000000	     27.28299294	    -10.22390424	     -0.98247216	     72.27072227	      1.26136206	      2.67385599	    -20.40021816	      0.00000000
      0.03333333	      0.53210090	     -6.05928230	     -1.97175408	      2.21763484	      0.95794756	      1.02345732	     -1.50027364	      7.85882484	     -6.57617283	     32.80714398	      0.57259268	     17.78971070	     -4.01932477	      0.00000000	     27.45623279	     -9.67091619	     -1.35871802	     69.60510598	      1.21483828	      3.12839072	    -19.78329173	      0.00000000
      0.04000000	      0.37129052	     -5.46246848	     -1.85942336	      2.21819113	      0.96204151	      1.02266255	     -2.98029479	      7.16071769	     -6.64441179	     31.38585692	      0.54778654	     15.97589925	     -3.94959140	      0.00000000	     27.77257089	     -8.91668103	     -1.78973215	     66.75696516	      1.16512884	      3.55349258	    -19.04729840	      0.00000000
      0.04666667	     -0.02292326	     -4.74997285	     -1.79004838	      2.21875285	      0.96576472	      1.02187404	     -4.03548660	      6.26175901	     -6.97378380	     30.25009551	      0.52796377	     14.08715064	     -3.78429236	      0.00000000	     28.23173074	     -8.01240883	     -2.26701351	     63.73394572	      1.11236720	      3.96396154	    -18.26748481	      0.00000000
      0.05333333	     -0.01134375	     -4.14745013	     -1.56971466	      2.21957722	      0.97005183	      1.02086394	     -5.62864416	      5.57007295	     -7.21260489	     28.85713201	      0.50365197	     12.02855394	     -3.71180469	      0.00000000	     28.10161228	     -7.17115505	     -2.67579584	     60.47125986	      1.05542259	      4.34507424	    -17.43213114	      0.00000000
      0.06000000	     -0.24921087	     -3.55587181	     -1.42007145	      2.22032846	      0.97390899	      1.01998594	     -6.79789813	      4.87048657	     -7.53452730	     27.70243778	      0.48349875	      9.83824131	     -3.74480695	      0.00000000	     28.14922485	     -6.35743832	     -3.12223638	     57.06830453	      0.99602981	      4.74770670	    -16.43065423	      0.00000000
      0.06666667	     -0.44265397	     -3.05851079	     -1.25699941	      2.22110449	      0.97771577	      1.01905974	     -7.96302991	      4.31107820	     -7.77251744	     26.57804569	      0.46387441	      7.42828691	     -4.00968589	      0.00000000	     28.04756376	     -5.63712500	     -3.55751577	     53.52523474	      0.93419158	      5.16192412	    -15.21600578	      0.00000000
      0.07333333	     -0.77864998	     -2.48066524	     -1.07055275	      2.22186113	      0.98107996	      1.01800557	     -8.76995587	      3.58459664	     -8.33374276	     25.83960622	      0.45098621	      5.19515010	     -4.04500214	      0.00000000	     28.00532243	     -4.75184186	     -3.92030101	     49.84615026	      0.86997944	      5.57422786	    -13.95819111	      0.00000000
